<?xml version="1.0" encoding="UTF-8"?>
<svg id="Capa_1" xmlns="http://www.w3.org/2000/svg" xmlns:xlink="http://www.w3.org/1999/xlink" version="1.1" viewBox="0 0 5000 1334.4">
  <!-- Generator: Adobe Illustrator 29.2.1, SVG Export Plug-In . SVG Version: 2.1.0 Build 116)  -->
  <defs>
    <style>
      .st0 {
        fill: #6ee036;
      }
    </style>
  </defs>
  <path id="id-D6z1nYkh8" d="M481.2,825.5l-135-178.9-40.9,45.5v133.5H126.3V285.5h179v196l177.4-196h198.3l-216.1,237.6,226.9,302.4h-210.7ZM1039.7,825.5l-91.8-135.8h-49.3v135.8h-182V285.5h259.9c49.9,0,93.3,8.2,130.4,24.7,37.1,16.5,65.5,40.1,85.7,71,20,30.9,30.1,66.9,30.1,108h0c0,38.6-8.7,72.3-26.2,101-17.5,28.7-42.7,51.7-75.7,68.6h0l113.4,166.7h-194.4ZM1039,489.2c0-20-6.2-35.6-18.5-46.7-12.4-11-30.9-16.6-55.5-16.6h-66.4v126.5h66.4c24.7,0,43.2-5.5,55.5-16.6s18.5-26.6,18.5-46.6h0ZM1574.4,837.9c-58.1,0-110.3-12.1-156.6-36.2-46.3-24.2-82.6-57.8-108.8-100.7-26.2-43-39.3-91.4-39.3-145.4h0c0-54,13.1-102.5,39.3-145.4,26.2-42.9,62.5-76.5,108.8-100.7,46.3-24.2,98.5-36.2,156.6-36.2h0c58.1,0,110.3,12.1,156.6,36.2,46.3,24.2,82.6,57.8,108.8,100.7,26.2,43,39.3,91.4,39.3,145.4h0c0,54-13.1,102.5-39.3,145.4-26.2,43-62.5,76.5-108.8,100.7-46.3,24.2-98.5,36.2-156.6,36.2h0ZM1574.4,690.5c22.7,0,43.1-5.5,61.3-16.6,18.3-11,32.8-26.8,43.6-47.1,10.8-20.3,16.2-44.1,16.2-71.3h0c0-27.2-5.4-51-16.2-71.3s-25.4-36-43.6-47.1c-18.3-11-38.7-16.6-61.3-16.6h0c-22.7,0-43.1,5.5-61.3,16.6-18.3,11-32.8,26.8-43.6,47.1-10.8,20.3-16.2,44.1-16.2,71.3h0c0,27.2,5.4,51,16.2,71.3,10.8,20.3,25.4,36,43.6,47.1,18.3,11,38.8,16.6,61.3,16.6h0ZM2205.5,285.5c49.9,0,93.3,8.2,130.4,24.7,37.1,16.5,65.5,40.1,85.7,71,20,30.9,30.1,66.9,30.1,108h0c0,41.1-10,77.1-30.1,108-20,30.9-48.6,54.5-85.7,71-37.1,16.5-80.5,24.7-130.4,24.7h-77.9v132.7h-182.1V285.5h260ZM2193.9,552.4c24.7,0,43.2-5.5,55.5-16.6,12.4-11,18.5-26.6,18.5-46.7h0c0-20-6.2-35.6-18.5-46.7-12.4-11-30.9-16.6-55.5-16.6h-66.4v126.5h66.4ZM2511,825.5V285.5h182.1v398.9h243.8v141.2h-425.9ZM3399,825.5l-36.2-94.1h-205.2l-36.2,94.1h-185.2l236-540h179l236,540h-188.2ZM3207.6,600.3h105l-52.4-135.8-52.5,135.8ZM3971.4,285.5h177.4v540h-149.7l-205.2-245.3v245.3h-177.4V285.5h149.7l205.2,245.3v-245.3ZM4236.8,825.5V285.5h266.2c60.2,0,113.3,11,159.4,32.8,46.1,21.8,81.7,53.1,107.2,93.7,25.5,40.6,38.2,88.5,38.2,143.5h0c0,55.1-12.7,102.9-38.2,143.5-25.5,40.6-61.2,71.9-107.2,93.7-46.1,21.8-99.2,32.8-159.4,32.8h-266.2ZM4418.9,683.6h76.4c39,0,70.3-11.1,93.7-33.5,23.4-22.4,35.1-53.8,35.1-94.5h0c0-40.6-11.7-72.1-35.1-94.5-23.4-22.4-54.7-33.5-93.7-33.5h-76.4v256Z"/>
  <g>
    <path class="st0" d="M2678.1,1154.7h-112.2l-16.7,45.7h-84.8l118.6-286.1h84.8l114.5,286.1h-88l-16.3-45.7ZM2656.3,1092.6l-33.3-93.4-34.1,93.4h67.4Z"/>
    <path class="st0" d="M3014.2,978.4v202.9c0,62.5-47.9,102.1-118.5,102.1s-76.1-13.1-99.4-29l26.6-55.5c19,13.1,44,20.4,66.2,20.4s46-13.9,46-35.5v-22.5c-13.9,17.1-33.3,26.5-57.9,26.5-52.3,0-90.4-42.4-90.4-107.4s36.9-104.9,88.8-104.9,45.6,9.8,59.5,27v-24.1h79.2ZM2934.9,1082.9c0-28.2-14.7-46.5-36.9-46.5s-36.4,18.8-36.4,46.5,14.7,45.7,36.4,45.7,36.9-18.4,36.9-45.7Z"/>
    <path class="st0" d="M3209.1,975.1v74.2c-41.2-5.3-67.8,12.6-67.8,44.9v106.1h-80.1v-222h80.1v35.1c15.1-24.5,38.5-38.4,67.8-38.4Z"/>
    <path class="st0" d="M3317.3,978.4v222.1h-80.1v-222.1h80.1ZM3311.8,916.3c0,20-13.9,34.7-34.1,34.7s-34.1-14.7-34.1-34.7,13.9-35.5,34.1-35.5,34.1,14.7,34.1,35.5Z"/>
    <path class="st0" d="M3465.6,1042.5c-21.4,0-35.7,19.2-35.7,47.4s14.2,48.1,35.7,48.1,27.3-7.8,34.1-24.5l62.3,32.2c-16.7,36.7-53.1,57.6-100.7,57.6-67.8,0-112.2-44.9-112.2-113.1s44.8-114.7,112.9-114.7,81.3,21.3,99.4,58l-61.4,31c-7.5-13.8-19.4-21.9-34.5-21.9Z"/>
    <path class="st0" d="M3804.8,978.4v222.1h-80.1v-33.1c-14.7,23.7-37.3,36.7-66.2,36.7-45.2,0-76.1-33.1-76.1-84.9v-140.8h80.1v117.5c0,21.6,11.5,35.5,28.9,35.5,20.6-.4,33.3-18,33.3-43.3v-109.7h80.1Z"/>
    <path class="st0" d="M3935.2,897.5v302.9h-80.1v-302.9h80.1Z"/>
    <path class="st0" d="M4133.3,1189.8c-15.1,9-38,14.3-59.8,14.3-46,.4-76.9-27-76.9-73v-88.6h-29.7v-52.6h29.7v-61.6h79.7v61.6h53.1v52.6h-53.1v75.9c0,14.3,7.1,21.3,18.3,21.3s15.1-2.9,24.5-6.6l14.2,56.6Z"/>
    <path class="st0" d="M4380.2,978.4v222.1h-80.1v-33.1c-14.7,23.7-37.3,36.7-66.2,36.7-45.2,0-76.1-33.1-76.1-84.9v-140.8h80.1v117.5c0,21.6,11.5,35.5,28.9,35.5,20.6-.4,33.3-18,33.3-43.3v-109.7h80.1Z"/>
    <path class="st0" d="M4576.4,975.1v74.2c-41.2-5.3-67.8,12.6-67.8,44.9v106.1h-80.1v-222h80.1v35.1c15.2-24.5,38.5-38.4,67.8-38.4Z"/>
    <path class="st0" d="M4813.8,1109.4h-145c6.4,21.3,21.4,33.1,42,33.1s33.3-7.8,47.6-21.3l41.6,42c-22.6,25.7-55.1,40-95.9,40-72.1,0-116.1-44.9-116.1-113.1s45.6-114.7,113.8-114.7c75.6,0,116.8,52.3,112.1,134ZM4702.4,1031.4c-19,0-31.3,15.1-35.3,37.5h67.8c.5-22-13-37.5-32.5-37.5Z"/>
  </g>
  <rect id="id-bTUYkkdP" class="st0" x="126.3" y="51" width="566.7" height="156.4"/>
  <rect id="id-nFIeSnG4yE" class="st0" x="2502" y="51" width="443.5" height="156.4"/>
  <g>
    <path d="M4812.2,170.8l3.5-1.8c3.7-1.9,6.5-4.5,8.4-7.6,1.9-3.2,2.9-7,2.9-11.3s-1.1-8.7-3.3-12.1c-2.3-3.5-5.4-6.1-9.6-7.9-4.3-1.9-9.6-2.9-15.5-2.9h-25.7v70.1h16.7v-24.6h7.1l16.3,24.6h16.8l-17.7-26.4ZM4806.6,158.7c-2.3,2-5.5,3-9.5,3h-7.5v-23.4h7.5c4.1,0,7.3,1,9.5,3,2.4,2.1,3.6,5,3.6,8.6s-1.9,7.2-3.6,8.6Z"/>
    <path d="M4798.5,237.3c-41.5,0-75.2-33.7-75.2-75.2s33.7-75.2,75.2-75.2,75.2,33.7,75.2,75.2-33.7,75.2-75.2,75.2ZM4798.5,98.5c-35.1,0-63.6,28.5-63.6,63.6s28.5,63.6,63.6,63.6,63.6-28.5,63.6-63.6-28.5-63.6-63.6-63.6Z"/>
  </g>
</svg>